<?xml version="1.0" standalone="no"?><svg xmlns="http://www.w3.org/2000/svg" viewBox="0 0 1440 320"><path fill="#e7a0a9" fill-opacity="1" d="M0,32L17.1,74.7C34.3,117,69,203,103,234.7C137.1,267,171,245,206,197.3C240,149,274,75,309,37.3C342.9,0,377,0,411,5.3C445.7,11,480,21,514,64C548.6,107,583,181,617,197.3C651.4,213,686,171,720,128C754.3,85,789,43,823,21.3C857.1,0,891,0,926,53.3C960,107,994,213,1029,250.7C1062.9,288,1097,256,1131,213.3C1165.7,171,1200,117,1234,96C1268.6,75,1303,85,1337,106.7C1371.4,128,1406,160,1423,176L1440,192L1440,320L1422.9,320C1405.7,320,1371,320,1337,320C1302.9,320,1269,320,1234,320C1200,320,1166,320,1131,320C1097.1,320,1063,320,1029,320C994.3,320,960,320,926,320C891.4,320,857,320,823,320C788.6,320,754,320,720,320C685.7,320,651,320,617,320C582.9,320,549,320,514,320C480,320,446,320,411,320C377.1,320,343,320,309,320C274.3,320,240,320,206,320C171.4,320,137,320,103,320C68.6,320,34,320,17,320L0,320Z"></path></svg>